# xmcd CD database file
#
# Track frame offsets:
#	150
#	22736
#	34101
#	49315
#	63039
#	77376
#	93786
#	109133
#	124161
#	140952
#
# Disc length: 2143 seconds
#
# Revision: 1
# Processed by: cddbd v1.5.2PL0 Copyright (c) Steve Scherf et al.
# Submitted via: CDex 1.70beta2
#
DISCID=79085d0a
DTITLE=Mitchell John - Cowboys and Rodeo
DYEAR=1999
DGENRE=Country
TTITLE0=Too Many Highways
TTITLE1=I'd Rather Be Lucky
TTITLE2=Last Rodeo
TTITLE3=Just Can't See Him from the Road
TTITLE4=Dear John Deere
TTITLE5=Vanishing Days of a Cowboy
TTITLE6=Son of a Gun
TTITLE7=Tonight in Abilene
TTITLE8=Truck Driving Cowboy
TTITLE9=Hundred Steers from Now
EXTD=YEAR: 1999
EXTT0=
EXTT1=
EXTT2=
EXTT3=
EXTT4=
EXTT5=
EXTT6=
EXTT7=
EXTT8=
EXTT9=
PLAYORDER=
